# Generated cache for Holosoma motion-matched terrain manifest
v -0.77745080 -0.85230388 0.00000000
v -0.77745080 -0.85230388 0.70449438
v -0.82921303 -0.18689842 0.00000000
v -0.82921303 -0.18689842 0.70449438
v 0.40549225 -0.76028214 0.00000000
v 0.40549225 -0.76028214 0.70449438
v 0.35373001 -0.09487668 0.00000000
v 0.35373001 -0.09487668 0.70449438
v 0.42860258 -0.53784800 0.00000000
v 0.42860258 -0.53784800 0.34853933
v 0.36582441 0.20106300 0.00000000
v 0.36582441 0.20106300 0.34853933
v 1.16751358 -0.47506984 0.00000000
v 1.16751358 -0.47506984 0.34853933
v 1.10473542 0.26384116 0.00000000
v 1.10473542 0.26384116 0.34853933
f 2 4 1
f 5 2 1
f 1 4 3
f 3 5 1
f 2 8 4
f 6 2 5
f 6 8 2
f 4 8 3
f 7 5 3
f 3 8 7
f 7 6 5
f 8 6 7
f 10 12 9
f 13 10 9
f 9 12 11
f 11 13 9
f 10 16 12
f 14 10 13
f 14 16 10
f 12 16 11
f 15 13 11
f 11 16 15
f 15 14 13
f 16 14 15
