# Generated cache for Holosoma motion-matched terrain manifest
v -0.51406767 -0.67561436 0.00000000
v -0.51406767 -0.67561436 0.70449438
v -0.54167419 -0.32073144 0.00000000
v -0.54167419 -0.32073144 0.70449438
v 0.66887538 -0.58359262 0.00000000
v 0.66887538 -0.58359262 0.70449438
v 0.64126885 -0.22870970 0.00000000
v 0.64126885 -0.22870970 0.70449438
v -0.37078652 -0.37078652 0.00000000
v -0.37078652 -0.37078652 0.34853933
v -0.37078652 0.37078652 0.00000000
v -0.37078652 0.37078652 0.34853933
v 0.37078652 -0.37078652 0.00000000
v 0.37078652 -0.37078652 0.34853933
v 0.37078652 0.37078652 0.00000000
v 0.37078652 0.37078652 0.34853933
f 2 4 1
f 5 2 1
f 1 4 3
f 3 5 1
f 2 8 4
f 6 2 5
f 6 8 2
f 4 8 3
f 7 5 3
f 3 8 7
f 7 6 5
f 8 6 7
f 10 12 9
f 13 10 9
f 9 12 11
f 11 13 9
f 10 16 12
f 14 10 13
f 14 16 10
f 12 16 11
f 15 13 11
f 11 16 15
f 15 14 13
f 16 14 15
