# Generated cache for Holosoma motion-matched terrain manifest
v -0.74604590 -0.37355476 0.00000000
v -0.74604590 -0.37355476 0.47460674
v -0.92197832 0.30861832 0.00000000
v -0.92197832 0.30861832 0.47460674
v 0.40287719 -0.07724753 0.00000000
v 0.40287719 -0.07724753 0.47460674
v 0.22694477 0.60492555 0.00000000
v 0.22694477 0.60492555 0.47460674
v -1.85393258 -1.85393258 0.00000000
v -1.85393258 -1.85393258 0.07415730
v -1.85393258 1.85393258 0.00000000
v -1.85393258 1.85393258 0.07415730
v 1.85393258 -1.85393258 0.00000000
v 1.85393258 -1.85393258 0.07415730
v 1.85393258 1.85393258 0.00000000
v 1.85393258 1.85393258 0.07415730
f 2 4 1
f 5 2 1
f 1 4 3
f 3 5 1
f 2 8 4
f 6 2 5
f 6 8 2
f 4 8 3
f 7 5 3
f 3 8 7
f 7 6 5
f 8 6 7
f 10 12 9
f 13 10 9
f 9 12 11
f 11 13 9
f 10 16 12
f 14 10 13
f 14 16 10
f 12 16 11
f 15 13 11
f 11 16 15
f 15 14 13
f 16 14 15
