# https://github.com/mikedh/trimesh
v -1.01466743 -0.93995140 0.00000000
v -1.01466743 -0.93995140 0.95000000
v -1.05189440 -0.46139717 0.00000000
v -1.05189440 -0.46139717 0.95000000
v 0.58051334 -0.81586147 0.00000000
v 0.58051334 -0.81586147 0.95000000
v 0.54328637 -0.33730724 0.00000000
v 0.54328637 -0.33730724 0.95000000
v -0.41236701 -0.41011558 0.00000000
v -0.41236701 -0.41011558 0.47000000
v -0.48499228 0.58724372 0.00000000
v -0.48499228 0.58724372 0.47000000
v 0.58499228 -0.33749031 0.00000000
v 0.58499228 -0.33749031 0.47000000
v 0.51236701 0.65986899 0.00000000
v 0.51236701 0.65986899 0.47000000
v -0.45000000 -1.86849506 0.00000000
v -0.45000000 -1.86849506 0.18000000
v -0.45000000 -0.86849506 0.00000000
v -0.45000000 -0.86849506 0.18000000
v 0.55000000 -1.86849506 0.00000000
v 0.55000000 -1.86849506 0.18000000
v 0.55000000 -0.86849506 0.00000000
v 0.55000000 -0.86849506 0.18000000
f 2 4 1
f 5 2 1
f 1 4 3
f 3 5 1
f 2 8 4
f 6 2 5
f 6 8 2
f 4 8 3
f 7 5 3
f 3 8 7
f 7 6 5
f 8 6 7
f 10 12 9
f 13 10 9
f 9 12 11
f 11 13 9
f 10 16 12
f 14 10 13
f 14 16 10
f 12 16 11
f 15 13 11
f 11 16 15
f 15 14 13
f 16 14 15
f 18 20 17
f 21 18 17
f 17 20 19
f 19 21 17
f 18 24 20
f 22 18 21
f 22 24 18
f 20 24 19
f 23 21 19
f 19 24 23
f 23 22 21
f 24 22 23

