# https://github.com/mikedh/trimesh
v -0.78121637 -0.33563836 0.00000000
v -0.78121637 -0.33563836 0.95000000
v -0.81844334 0.14291587 0.00000000
v -0.81844334 0.14291587 0.95000000
v 0.81396440 -0.21154843 0.00000000
v 0.81396440 -0.21154843 0.95000000
v 0.77673743 0.26700580 0.00000000
v 0.77673743 0.26700580 0.95000000
v -0.17891595 0.19419746 0.00000000
v -0.17891595 0.19419746 0.47000000
v -0.25154122 1.19155676 0.00000000
v -0.25154122 1.19155676 0.47000000
v 0.81844334 0.26682273 0.00000000
v 0.81844334 0.26682273 0.47000000
v 0.74581807 1.26418203 0.00000000
v 0.74581807 1.26418203 0.47000000
v -0.21654894 -1.26418202 0.00000000
v -0.21654894 -1.26418202 0.18000000
v -0.21654894 -0.26418202 0.00000000
v -0.21654894 -0.26418202 0.18000000
v 0.78345106 -1.26418202 0.00000000
v 0.78345106 -1.26418202 0.18000000
v 0.78345106 -0.26418202 0.00000000
v 0.78345106 -0.26418202 0.18000000
v -7.41573034 -7.41573034 -0.07415730
v -7.41573034 -7.41573034 0.00000000
v -7.41573034 7.41573034 -0.07415730
v -7.41573034 7.41573034 0.00000000
v 7.41573034 -7.41573034 -0.07415730
v 7.41573034 -7.41573034 0.00000000
v 7.41573034 7.41573034 -0.07415730
v 7.41573034 7.41573034 0.00000000
f 2 4 1
f 5 2 1
f 1 4 3
f 3 5 1
f 2 8 4
f 6 2 5
f 6 8 2
f 4 8 3
f 7 5 3
f 3 8 7
f 7 6 5
f 8 6 7
f 10 12 9
f 13 10 9
f 9 12 11
f 11 13 9
f 10 16 12
f 14 10 13
f 14 16 10
f 12 16 11
f 15 13 11
f 11 16 15
f 15 14 13
f 16 14 15
f 18 20 17
f 21 18 17
f 17 20 19
f 19 21 17
f 18 24 20
f 22 18 21
f 22 24 18
f 20 24 19
f 23 21 19
f 19 24 23
f 23 22 21
f 24 22 23
f 26 28 25
f 29 26 25
f 25 28 27
f 27 29 25
f 26 32 28
f 30 26 29
f 30 32 26
f 28 32 27
f 31 29 27
f 27 32 31
f 31 30 29
f 32 30 31

