# https://github.com/mikedh/trimesh
v -0.57932899 -0.24890036 0.00000000
v -0.57932899 -0.24890036 0.70449438
v -0.60693551 0.10598256 0.00000000
v -0.60693551 0.10598256 0.70449438
v 0.60361405 -0.15687861 0.00000000
v 0.60361405 -0.15687861 0.70449438
v 0.57600753 0.19800430 0.00000000
v 0.57600753 0.19800430 0.70449438
v -0.13267924 0.14401160 0.00000000
v -0.13267924 0.14401160 0.34853933
v -0.18653619 0.88362636 0.00000000
v -0.18653619 0.88362636 0.34853933
v 0.60693551 0.19786854 0.00000000
v 0.60693551 0.19786854 0.34853933
v 0.55307857 0.93748330 0.00000000
v 0.55307857 0.93748330 0.34853933
v -0.16058685 -0.93748330 0.00000000
v -0.16058685 -0.93748330 0.13348315
v -0.16058685 -0.19591026 0.00000000
v -0.16058685 -0.19591026 0.13348315
v 0.58098618 -0.93748330 0.00000000
v 0.58098618 -0.93748330 0.13348315
v 0.58098618 -0.19591026 0.00000000
v 0.58098618 -0.19591026 0.13348315
v -5.49930565 -5.49930565 -0.05499305
v -5.49930565 -5.49930565 0.00000000
v -5.49930565 5.49930565 -0.05499305
v -5.49930565 5.49930565 0.00000000
v 5.49930565 -5.49930565 -0.05499305
v 5.49930565 -5.49930565 0.00000000
v 5.49930565 5.49930565 -0.05499305
v 5.49930565 5.49930565 0.00000000
f 2 4 1
f 5 2 1
f 1 4 3
f 3 5 1
f 2 8 4
f 6 2 5
f 6 8 2
f 4 8 3
f 7 5 3
f 3 8 7
f 7 6 5
f 8 6 7
f 10 12 9
f 13 10 9
f 9 12 11
f 11 13 9
f 10 16 12
f 14 10 13
f 14 16 10
f 12 16 11
f 15 13 11
f 11 16 15
f 15 14 13
f 16 14 15
f 18 20 17
f 21 18 17
f 17 20 19
f 19 21 17
f 18 24 20
f 22 18 21
f 22 24 18
f 20 24 19
f 23 21 19
f 19 24 23
f 23 22 21
f 24 22 23
f 26 28 25
f 29 26 25
f 25 28 27
f 27 29 25
f 26 32 28
f 30 26 29
f 30 32 26
f 28 32 27
f 31 29 27
f 27 32 31
f 31 30 29
f 32 30 31

