# Generated cache for Holosoma motion-matched terrain manifest
v -0.78952866 -0.69704261 0.00000000
v -0.78952866 -0.69704261 0.70449438
v -0.81713517 -0.34215970 0.00000000
v -0.81713517 -0.34215970 0.70449438
v 0.39341439 -0.60502087 0.00000000
v 0.39341439 -0.60502087 0.70449438
v 0.36580787 -0.25013795 0.00000000
v 0.36580787 -0.25013795 0.70449438
v -0.70556613 -0.19871883 0.00000000
v -0.70556613 -0.19871883 0.34853933
v -0.70556613 0.54285420 0.00000000
v -0.70556613 0.54285420 0.34853933
v 0.03600691 -0.19871883 0.00000000
v 0.03600691 -0.19871883 0.34853933
v 0.03600691 0.54285420 0.00000000
v 0.03600691 0.54285420 0.34853933
f 2 4 1
f 5 2 1
f 1 4 3
f 3 5 1
f 2 8 4
f 6 2 5
f 6 8 2
f 4 8 3
f 7 5 3
f 3 8 7
f 7 6 5
f 8 6 7
f 10 12 9
f 13 10 9
f 9 12 11
f 11 13 9
f 10 16 12
f 14 10 13
f 14 16 10
f 12 16 11
f 15 13 11
f 11 16 15
f 15 14 13
f 16 14 15
